<?xml version="1.0" encoding="utf-8"?>
<svg version="1.1" xmlns:xlink="http://www.w3.org/1999/xlink" width="40px" height="50px" xmlns="http://www.w3.org/2000/svg">
  <defs>
    <mask fill="white" id="clip214">
      <path d="M 30 14  C 30 18.0674528349432  28.5110244691962 21.4731387673069  26.340585106779 24.7553989298848  C 23.1749100740369 29.5427103045113  18.5595282990341 34.0674528349432  15 40  C 10.4800906734519 32.4668177890865  4.25771632021906 27.2035889470859  1.46286864179092 20.7903190063386  C 0.651308872462437 18.9280522667494  0.128754249608505 16.9688153712054  0.0208088577121543 14.8288722633847  C 0.0207729025623848 14.828159477285  0.0207369934121289 14.8274466711365  0.0207011302660476 14.8267338449362  C 0.00698689801492947 14.5541458229513  0 14.278625555479  0 14  C 0 8.8  3 0  15 0  C 27 0  30 8.8  30 14  Z " fill-rule="evenodd" />
    </mask>
    <filter x="611px" y="31px" width="40px" height="50px" filterUnits="userSpaceOnUse" id="filter215">
      <feOffset dx="1" dy="1" in="SourceAlpha" result="shadowOffsetInner" />
      <feGaussianBlur stdDeviation="2.5" in="shadowOffsetInner" result="shadowGaussian" />
      <feComposite in2="shadowGaussian" operator="atop" in="SourceAlpha" result="shadowComposite" />
      <feColorMatrix type="matrix" values="0 0 0 0 0  0 0 0 0 0  0 0 0 0 0  0 0 0 0.698039215686274 0  " in="shadowComposite" />
    </filter>
    <g id="widget216">
      <path d="M 30 14  C 30 18.0674528349432  28.5110244691962 21.4731387673069  26.340585106779 24.7553989298848  C 23.1749100740369 29.5427103045113  18.5595282990341 34.0674528349432  15 40  C 10.4800906734519 32.4668177890865  4.25771632021906 27.2035889470859  1.46286864179092 20.7903190063386  C 0.651308872462437 18.9280522667494  0.128754249608505 16.9688153712054  0.0208088577121543 14.8288722633847  C 0.0207729025623848 14.828159477285  0.0207369934121289 14.8274466711365  0.0207011302660476 14.8267338449362  C 0.00698689801492947 14.5541458229513  0 14.278625555479  0 14  C 0 8.8  3 0  15 0  C 27 0  30 8.8  30 14  Z " fill-rule="nonzero" fill="#009dd9" stroke="none" transform="matrix(1 0 0 1 615 35 )" />
      <path d="M 30 14  C 30 18.0674528349432  28.5110244691962 21.4731387673069  26.340585106779 24.7553989298848  C 23.1749100740369 29.5427103045113  18.5595282990341 34.0674528349432  15 40  C 10.4800906734519 32.4668177890865  4.25771632021906 27.2035889470859  1.46286864179092 20.7903190063386  C 0.651308872462437 18.9280522667494  0.128754249608505 16.9688153712054  0.0208088577121543 14.8288722633847  C 0.0207729025623848 14.828159477285  0.0207369934121289 14.8274466711365  0.0207011302660476 14.8267338449362  C 0.00698689801492947 14.5541458229513  0 14.278625555479  0 14  C 0 8.8  3 0  15 0  C 27 0  30 8.8  30 14  Z " stroke-width="2" stroke="#ffffff" fill="none" transform="matrix(1 0 0 1 615 35 )" mask="url(#clip214)" />
    </g>
  </defs>
  <g transform="matrix(1 0 0 1 -611 -31 )">
    <use xlink:href="#widget216" filter="url(#filter215)" />
    <use xlink:href="#widget216" />
  </g>
</svg>