<?xml version="1.0" encoding="utf-8"?>
<svg version="1.1" xmlns:xlink="http://www.w3.org/1999/xlink" width="15px" height="14px" xmlns="http://www.w3.org/2000/svg">
  <g transform="matrix(1 0 0 1 -19 -557 )">
    <path d="M 14.234693877551 2.79817708333333  C 14.4627851140456 2.88932291666667  14.639855942377 3.01996527777778  14.765906362545 3.19010416666667  C 15.0060024009604 3.53645833333333  15.0600240096038 3.92838541666667  14.9279711884754 4.36588541666667  L 12.4519807923169 12.6236979166667  C 12.3379351740696 13.0125868055556  12.1083433373349 13.3391927083333  11.7632052821128 13.603515625  C 11.4180672268908 13.8678385416667  11.0504201680672 14  10.6602641056423 14  L 2.3499399759904 14  C 1.88775510204082 14  1.44207683073229 13.8374565972222  1.01290516206483 13.5123697916667  C 0.583733493397359 13.1872829861111  0.285114045618247 12.7877604166667  0.117046818727491 12.3138020833333  C -0.0270108043217287 11.9066840277778  -0.0330132052821129 11.5208333333333  0.0990396158463385 11.15625  C 0.0990396158463385 11.1319444444444  0.108043217286915 11.0499131944444  0.126050420168067 10.91015625  C 0.14405762304922 10.7703993055556  0.156062424969988 10.6579861111111  0.162064825930372 10.5729166666667  C 0.168067226890756 10.5243055555556  0.15906362545018 10.458984375  0.135054021608643 10.376953125  C 0.111044417767107 10.294921875  0.102040816326531 10.2356770833333  0.108043217286915 10.19921875  C 0.120048019207683 10.1323784722222  0.14405762304922 10.0685763888889  0.180072028811525 10.0078125  C 0.21608643457383 9.94704861111111  0.265606242496999 9.87565104166667  0.328631452581032 9.79361979166667  C 0.391656662665066 9.71158854166667  0.441176470588235 9.64019097222222  0.47719087635054 9.57942708333333  C 0.615246098439376 9.34852430555555  0.750300120048019 9.07052951388889  0.882352941176471 8.74544270833333  C 1.01440576230492 8.42035590277778  1.10444177671068 8.14236111111111  1.15246098439376 7.91145833333333  C 1.17046818727491 7.85069444444444  1.17196878751501 7.75954861111111  1.15696278511405 7.63802083333333  C 1.14195678271309 7.51649305555556  1.14045618247299 7.43142361111111  1.15246098439376 7.3828125  C 1.17046818727491 7.31597222222222  1.22148859543818 7.23090277777778  1.30552220888355 7.12760416666667  C 1.38955582232893 7.02430555555556  1.4405762304922 6.95442708333333  1.45858343337335 6.91796875  C 1.58463385354142 6.69921875  1.71068427370948 6.41970486111111  1.83673469387755 6.07942708333333  C 1.96278511404562 5.73914930555555  2.03781512605042 5.46571180555555  2.06182472989196 5.25911458333333  C 2.06782713085234 5.20442708333333  2.06032412965186 5.10720486111111  2.03931572629052 4.96744791666667  C 2.01830732292917 4.82769097222222  2.01980792316927 4.74262152777778  2.0438175270108 4.71223958333333  C 2.06782713085234 4.63324652777778  2.13385354141657 4.54058159722222  2.24189675870348 4.43424479166667  C 2.3499399759904 4.32790798611111  2.41596638655462 4.25954861111111  2.43997599039616 4.22916666666667  C 2.55402160864346 4.07118055555555  2.68157262905162 3.814453125  2.82262905162065 3.458984375  C 2.96368547418968 3.103515625  3.04621848739496 2.81032986111111  3.07022809123649 2.57942708333333  C 3.07623049219688 2.53081597222222  3.0672268907563 2.45334201388889  3.04321728691477 2.34700520833333  C 3.01920768307323 2.24066840277778  3.01320528211285 2.16015625  3.02521008403361 2.10546875  C 3.03721488595438 2.05685763888889  3.06422569027611 2.00217013888889  3.1062424969988 1.94140625  C 3.14825930372149 1.88064236111111  3.20228091236495 1.81076388888889  3.26830732292917 1.73177083333333  C 3.3343337334934 1.65277777777778  3.38535414165666 1.58897569444444  3.42136854741897 1.54036458333333  C 3.46938775510204 1.46744791666667  3.51890756302521 1.37478298611111  3.56992797118848 1.26236979166667  C 3.62094837935174 1.14995659722222  3.66596638655462 1.04361979166667  3.70498199279712 0.943359375  C 3.74399759903962 0.843098958333333  3.79201680672269 0.733723958333333  3.84903961584634 0.615234375  C 3.90606242496999 0.496744791666667  3.96458583433373 0.399522569444444  4.02460984393757 0.323567708333333  C 4.08463385354142 0.24761284722222  4.16416566626651 0.176215277777777  4.26320528211285 0.109375  C 4.36224489795918 0.0425347222222203  4.4702881152461 0.00759548611111094  4.58733493397359 0.00455729166666718  C 4.70438175270108 0.00151909722222032  4.8469387755102 0.0182291666666672  5.01500600240096 0.0546875  L 5.00600240096038 0.08203125  C 5.23409363745498 0.02734375  5.38715486194478 0  5.46518607442977 0  L 12.3169267707083 0  C 12.7611044417767 0  13.1032412965186 0.170138888888888  13.343337334934 0.510416666666667  C 13.5834333733493 0.850694444444444  13.6374549819928 1.24565972222222  13.5054021608643 1.6953125  L 11.0384153661465 9.953125  C 10.8223289315726 10.6762152777778  10.6077430972389 11.142578125  10.3946578631453 11.3522135416667  C 10.1815726290516 11.5618489583333  9.79591836734694 11.6666666666667  9.23769507803121 11.6666666666667  L 1.41356542617047 11.6666666666667  C 1.2515006002401 11.6666666666667  1.1374549819928 11.7122395833333  1.07142857142857 11.8033854166667  C 1.00540216086435 11.9006076388889  1.00240096038415 12.03125  1.062424969988 12.1953125  C 1.20648259303721 12.6206597222222  1.63865546218487 12.8333333333333  2.35894357743097 12.8333333333333  L 10.6692677070828 12.8333333333333  C 10.843337334934 12.8333333333333  11.0114045618247 12.7862413194444  11.1734693877551 12.6920572916667  C 11.3355342136855 12.5978732638889  11.4405762304922 12.4717881944444  11.4885954381753 12.3138020833333  L 14.1896758703481 3.31770833333333  C 14.2316926770708 3.18402777777778  14.2466986794718 3.01085069444444  14.234693877551 2.79817708333333  Z M 5.37515006002401 2.625  L 5.18607442977191 3.20833333333333  C 5.16206482593037 3.28732638888889  5.16806722689076 3.35568576388889  5.20408163265306 3.41341145833333  C 5.24009603841537 3.47113715277778  5.30012004801921 3.5  5.38415366146459 3.5  L 10.8583433373349 3.5  C 10.9363745498199 3.5  11.0129051620648 3.47113715277778  11.0879351740696 3.41341145833333  C 11.1629651860744 3.35568576388889  11.2124849939976 3.28732638888889  11.2364945978391 3.20833333333333  L 11.4255702280912 2.625  C 11.4495798319328 2.54600694444444  11.4435774309724 2.47764756944444  11.4075630252101 2.419921875  C 11.3715486194478 2.36219618055555  11.3115246098439 2.33333333333333  11.2274909963986 2.33333333333333  L 5.75330132052821 2.33333333333333  C 5.67527010804322 2.33333333333333  5.59873949579832 2.36219618055555  5.52370948379352 2.419921875  C 5.44867947178872 2.47764756944444  5.39915966386555 2.54600694444444  5.37515006002401 2.625  Z M 4.62785114045618 4.95833333333333  L 4.43877551020408 5.54166666666667  C 4.41476590636255 5.62065972222222  4.42076830732293 5.68901909722222  4.45678271308523 5.74674479166667  C 4.49279711884754 5.80447048611111  4.55282112845138 5.83333333333333  4.63685474189676 5.83333333333333  L 10.1110444177671 5.83333333333333  C 10.1890756302521 5.83333333333333  10.265606242497 5.80447048611111  10.3406362545018 5.74674479166667  C 10.4156662665066 5.68901909722222  10.4651860744298 5.62065972222222  10.4891956782713 5.54166666666667  L 10.6782713085234 4.95833333333333  C 10.7022809123649 4.87934027777778  10.6962785114046 4.81098090277778  10.6602641056423 4.75325520833333  C 10.62424969988 4.69552951388889  10.5642256902761 4.66666666666667  10.4801920768307 4.66666666666667  L 5.00600240096038 4.66666666666667  C 4.92797118847539 4.66666666666667  4.85144057623049 4.69552951388889  4.77641056422569 4.75325520833333  C 4.70138055222089 4.81098090277778  4.65186074429772 4.87934027777778  4.62785114045618 4.95833333333333  Z " fill-rule="nonzero" fill="#000000" stroke="none" transform="matrix(1 0 0 1 19 557 )" />
  </g>
</svg>