<?xml version="1.0" encoding="utf-8"?>
<svg version="1.1" xmlns:xlink="http://www.w3.org/1999/xlink" width="15px" height="15px" xmlns="http://www.w3.org/2000/svg">
  <g transform="matrix(1 0 0 1 -20 -942 )">
    <path d="M 12.6852418860992 3.56617647058824  C 12.8567054500919 3.39460784313725  12.9424372320882 3.18627450980392  12.9424372320882 2.94117647058823  C 12.9424372320882 2.69607843137255  12.8567054500919 2.48774509803921  12.6852418860992 2.31617647058824  C 12.5137783221066 2.14460784313725  12.3055725658298 2.05882352941176  12.0606246172688 2.05882352941176  C 11.8156766687079 2.05882352941176  11.6074709124311 2.14460784313725  11.4360073484385 2.31617647058824  C 11.2645437844458 2.48774509803921  11.1788120024495 2.69607843137255  11.1788120024495 2.94117647058823  C 11.1788120024495 3.18627450980392  11.2645437844458 3.39460784313725  11.4360073484385 3.56617647058824  C 11.6074709124311 3.73774509803921  11.8156766687079 3.82352941176471  12.0606246172688 3.82352941176471  C 12.3055725658298 3.82352941176471  12.5137783221066 3.73774509803921  12.6852418860992 3.56617647058824  Z M 14.9081445192897 0.0873161764705888  C 14.9693815064299 0.145526960784312  15 0.214460784313725  15 0.294117647058824  C 15 1.81985294117647  14.7688303735456 3.13878676470588  14.3064911206369 4.25091911764706  C 13.8441518677281 5.36305147058824  13.0679730557257 6.46752450980392  11.9779546846295 7.56433823529412  C 11.4819350887936 8.05453431372549  10.8848744641764 8.59375  10.1867728107777 9.18198529411765  L 10.003061849357 12.6654411764706  C 9.99081445192897 12.7634803921569  9.94182486221678 12.843137254902  9.85609308022045 12.9044117647059  L 6.32884262094305 14.9632352941176  C 6.28597672994489 14.9877450980392  6.2369871402327 15  6.18187385180649 15  C 6.10838946723821 15  6.03796693202694 14.9724264705882  5.97060624617269 14.9172794117647  L 5.38273116962645 14.3290441176471  C 5.30312308634415 14.2432598039216  5.27862829148806 14.1452205882353  5.30924678505818 14.0349264705882  L 6.09001837109614 11.4981617647059  L 3.50887936313533 8.91544117647059  L 0.9736680955297 9.69669117647059  C 0.95529699938763 9.70281862745098  0.927740355174525 9.70588235294118  0.890998162890386 9.70588235294118  C 0.80526638089406 9.70588235294118  0.734843845682793 9.67830882352941  0.679730557256583 9.62316176470588  L 0.091855480710349 9.03492647058824  C -0.0122473974280466 8.91850490196078  -0.0275566442131047 8.79901960784314  0.0459277403551745 8.67647058823529  L 2.10349050826699 5.14705882352941  C 2.16472749540723 5.06127450980392  2.24433557868953 5.01225490196078  2.3423147581139 5  L 5.82363747703613 4.81617647058823  C 6.41151255358236 4.11764705882353  6.95039804041641 3.52022058823529  7.44029393753827 3.02389705882353  C 8.59154929577465 1.8780637254902  9.68769136558481 1.08762254901961  10.7287201469688 0.652573529411764  C 11.7697489283527 0.217524509803921  13.0894060012247 0  14.6876913655848 0  C 14.7734231475811 0  14.8469075321494 0.0291053921568618  14.9081445192897 0.0873161764705888  Z " fill-rule="nonzero" fill="#000000" stroke="none" transform="matrix(1 0 0 1 20 942 )" />
  </g>
</svg>