<?xml version="1.0" encoding="utf-8"?>
<svg version="1.1" xmlns:xlink="http://www.w3.org/1999/xlink" width="36px" height="35px" xmlns="http://www.w3.org/2000/svg">
  <g transform="matrix(1 0 0 1 -1132 -106 )">
    <path d="M 35.1515151515151 26.1616161616162  C 35.7171717171717 26.7115600448934  36 27.3793490460157  36 28.1649831649832  C 36 28.9506172839506  35.7171717171717 29.618406285073  35.1515151515151 30.1683501683502  L 31.030303030303 34.1750841750842  C 30.4646464646465 34.7250280583614  29.7777777777778 35  28.969696969697 35  C 28.1616161616162 35  27.4747474747475 34.7250280583614  26.9090909090909 34.1750841750842  L 18 25.513468013468  L 9.09090909090909 34.1750841750842  C 8.52525252525253 34.7250280583614  7.83838383838384 35  7.03030303030303 35  C 6.22222222222222 35  5.53535353535354 34.7250280583614  4.96969696969697 34.1750841750842  L 0.848484848484849 30.1683501683502  C 0.282828282828283 29.618406285073  0 28.9506172839506  0 28.1649831649832  C 0 27.3793490460157  0.282828282828283 26.7115600448934  0.848484848484849 26.1616161616162  L 9.75757575757576 17.5  L 0.848484848484849 8.83838383838384  C 0.282828282828283 8.28843995510662  0 7.62065095398429  0 6.83501683501683  C 0 6.04938271604938  0.282828282828283 5.38159371492704  0.848484848484849 4.83164983164983  L 4.96969696969697 0.824915824915825  C 5.53535353535354 0.274971941638607  6.22222222222222 0  7.03030303030303 0  C 7.83838383838384 0  8.52525252525253 0.274971941638607  9.09090909090909 0.824915824915825  L 18 9.48653198653199  L 26.9090909090909 0.824915824915825  C 27.4747474747475 0.274971941638607  28.1616161616162 0  28.969696969697 0  C 29.7777777777778 0  30.4646464646465 0.274971941638607  31.030303030303 0.824915824915825  L 35.1515151515151 4.83164983164983  C 35.7171717171717 5.38159371492704  36 6.04938271604938  36 6.83501683501683  C 36 7.62065095398429  35.7171717171717 8.28843995510662  35.1515151515151 8.83838383838384  L 26.2424242424242 17.5  L 35.1515151515151 26.1616161616162  Z " fill-rule="nonzero" fill="#000000" stroke="none" transform="matrix(1 0 0 1 1132 106 )" />
  </g>
</svg>