<?xml version="1.0" encoding="utf-8"?>
<svg version="1.1" xmlns:xlink="http://www.w3.org/1999/xlink" width="52px" height="71px" xmlns="http://www.w3.org/2000/svg">
  <defs>
    <mask fill="white" id="clip265">
      <path d="M 42 21.35  C 42 22.8073209986867  41.8849355136168 24.2089361746007  41.6694676024644 25.5654922510567  C 39.6301916047349 38.4044910211969  28.5972789253135 47.2073209986868  21 61  C 12.6 45.75  0 36.6  0 21.35  C 0 13.42  4.20000000000005 0  21 0  C 37.8 0  42 13.42  42 21.35  Z " fill-rule="evenodd" />
    </mask>
    <filter x="841px" y="144px" width="52px" height="71px" filterUnits="userSpaceOnUse" id="filter266">
      <feOffset dx="1" dy="1" in="SourceAlpha" result="shadowOffsetInner" />
      <feGaussianBlur stdDeviation="2.5" in="shadowOffsetInner" result="shadowGaussian" />
      <feComposite in2="shadowGaussian" operator="atop" in="SourceAlpha" result="shadowComposite" />
      <feColorMatrix type="matrix" values="0 0 0 0 0  0 0 0 0 0  0 0 0 0 0  0 0 0 0.698039215686274 0  " in="shadowComposite" />
    </filter>
    <g id="widget267">
      <path d="M 42 21.35  C 42 22.8073209986867  41.8849355136168 24.2089361746007  41.6694676024644 25.5654922510567  C 39.6301916047349 38.4044910211969  28.5972789253135 47.2073209986868  21 61  C 12.6 45.75  0 36.6  0 21.35  C 0 13.42  4.20000000000005 0  21 0  C 37.8 0  42 13.42  42 21.35  Z " fill-rule="nonzero" fill="#009dd9" stroke="none" transform="matrix(1 0 0 1 845 148 )" />
      <path d="M 42 21.35  C 42 22.8073209986867  41.8849355136168 24.2089361746007  41.6694676024644 25.5654922510567  C 39.6301916047349 38.4044910211969  28.5972789253135 47.2073209986868  21 61  C 12.6 45.75  0 36.6  0 21.35  C 0 13.42  4.20000000000005 0  21 0  C 37.8 0  42 13.42  42 21.35  Z " stroke-width="2" stroke="#ffffff" fill="none" transform="matrix(1 0 0 1 845 148 )" mask="url(#clip265)" />
    </g>
  </defs>
  <g transform="matrix(1 0 0 1 -841 -144 )">
    <use xlink:href="#widget267" filter="url(#filter266)" />
    <use xlink:href="#widget267" />
  </g>
</svg>