<?xml version="1.0" encoding="utf-8"?>
<svg version="1.1" xmlns:xlink="http://www.w3.org/1999/xlink" width="36px" height="25px" xmlns="http://www.w3.org/2000/svg">
  <g transform="matrix(1 0 0 1 -1779 -609 )">
    <path d="M 4.95200892857143 20.6232244318182  C 5.07924107142857 20.7356770833333  5.14285714285714 20.8688446969697  5.14285714285714 21.0227272727273  L 5.14285714285714 24.4318181818182  C 5.14285714285714 24.5857007575758  5.07924107142857 24.7188683712121  4.95200892857143 24.8313210227273  C 4.82477678571429 24.9437736742424  4.67410714285714 25  4.5 25  L 0.642857142857143 25  C 0.46875 25  0.318080357142857 24.9437736742424  0.190848214285714 24.8313210227273  C 0.0636160714285714 24.7188683712121  0 24.5857007575758  0 24.4318181818182  L 0 21.0227272727273  C 0 20.8688446969697  0.0636160714285714 20.7356770833333  0.190848214285714 20.6232244318182  C 0.318080357142857 20.510771780303  0.46875 20.4545454545455  0.642857142857143 20.4545454545455  L 4.5 20.4545454545455  C 4.67410714285714 20.4545454545455  4.82477678571429 20.510771780303  4.95200892857143 20.6232244318182  Z M 4.95200892857143 13.8050426136364  C 5.07924107142857 13.9174952651515  5.14285714285714 14.0506628787879  5.14285714285714 14.2045454545455  L 5.14285714285714 17.6136363636364  C 5.14285714285714 17.7675189393939  5.07924107142857 17.9006865530303  4.95200892857143 18.0131392045455  C 4.82477678571429 18.1255918560606  4.67410714285714 18.1818181818182  4.5 18.1818181818182  L 0.642857142857143 18.1818181818182  C 0.46875 18.1818181818182  0.318080357142857 18.1255918560606  0.190848214285714 18.0131392045455  C 0.0636160714285714 17.9006865530303  0 17.7675189393939  0 17.6136363636364  L 0 14.2045454545455  C 0 14.0506628787879  0.0636160714285714 13.9174952651515  0.190848214285714 13.8050426136364  C 0.318080357142857 13.6925899621212  0.46875 13.6363636363636  0.642857142857143 13.6363636363636  L 4.5 13.6363636363636  C 4.67410714285714 13.6363636363636  4.82477678571429 13.6925899621212  4.95200892857143 13.8050426136364  Z M 4.95200892857143 6.98686079545454  C 5.07924107142857 7.0993134469697  5.14285714285714 7.23248106060606  5.14285714285714 7.38636363636363  L 5.14285714285714 10.7954545454545  C 5.14285714285714 10.9493371212121  5.07924107142857 11.0825047348485  4.95200892857143 11.1949573863636  C 4.82477678571429 11.3074100378788  4.67410714285714 11.3636363636364  4.5 11.3636363636364  L 0.642857142857143 11.3636363636364  C 0.46875 11.3636363636364  0.318080357142857 11.3074100378788  0.190848214285714 11.1949573863636  C 0.0636160714285714 11.0825047348485  0 10.9493371212121  0 10.7954545454545  L 0 7.38636363636363  C 0 7.23248106060606  0.0636160714285714 7.0993134469697  0.190848214285714 6.98686079545454  C 0.318080357142857 6.87440814393939  0.46875 6.81818181818182  0.642857142857143 6.81818181818182  L 4.5 6.81818181818182  C 4.67410714285714 6.81818181818182  4.82477678571429 6.87440814393939  4.95200892857143 6.98686079545454  Z M 35.8091517857143 20.6232244318182  C 35.9363839285714 20.7356770833333  36 20.8688446969697  36 21.0227272727273  L 36 24.4318181818182  C 36 24.5857007575758  35.9363839285714 24.7188683712121  35.8091517857143 24.8313210227273  C 35.6819196428571 24.9437736742424  35.53125 25  35.3571428571429 25  L 8.35714285714286 25  C 8.18303571428572 25  8.03236607142857 24.9437736742424  7.90513392857143 24.8313210227273  C 7.77790178571428 24.7188683712121  7.71428571428571 24.5857007575758  7.71428571428571 24.4318181818182  L 7.71428571428571 21.0227272727273  C 7.71428571428571 20.8688446969697  7.77790178571428 20.7356770833333  7.90513392857143 20.6232244318182  C 8.03236607142857 20.510771780303  8.18303571428572 20.4545454545455  8.35714285714286 20  L 35.3571428571429 20  C 35.53125 20.4545454545455  35.6819196428571 20.510771780303  35.8091517857143 20.6232244318182  Z M 4.95200892857143 0.168678977272727  C 5.07924107142857 0.281131628787878  5.14285714285714 0.41429924242424  5.14285714285714 0.568181818181818  L 5.14285714285714 3.97727272727273  C 5.14285714285714 4.1311553030303  5.07924107142857 4.26432291666666  4.95200892857143 4.37677556818182  C 4.82477678571429 4.48922821969697  4.67410714285714 4.54545454545454  4.5 4.54545454545454  L 0.642857142857143 4.54545454545454  C 0.46875 4.54545454545454  0.318080357142857 4.48922821969697  0.190848214285714 4.37677556818182  C 0.0636160714285714 4.26432291666666  0 4.1311553030303  0 3.97727272727273  L 0 0.568181818181818  C 0 0.41429924242424  0.0636160714285714 0.281131628787878  0.190848214285714 0.168678977272727  C 0.318080357142857 0.0562263257575718  0.46875 0  0.642857142857143 0  L 4.5 0  C 4.67410714285714 0  4.82477678571429 0.0562263257575718  4.95200892857143 0.168678977272727  Z M 35.8091517857143 13.8050426136364  C 35.9363839285714 13.9174952651515  36 14.0506628787879  36 14.2045454545455  L 36 17.6136363636364  C 36 17.7675189393939  35.9363839285714 17.9006865530303  35.8091517857143 18.0131392045455  C 35.6819196428571 18.1255918560606  35.53125 18.1818181818182  35.3571428571429 18  L 8.35714285714286 18  C 8.18303571428572 18.1818181818182  8.03236607142857 18.1255918560606  7.90513392857143 18.0131392045455  C 7.77790178571428 17.9006865530303  7.71428571428571 17.7675189393939  7.71428571428571 17.6136363636364  L 7.71428571428571 14.2045454545455  C 7.71428571428571 14.0506628787879  7.77790178571428 13.9174952651515  7.90513392857143 13.8050426136364  C 8.03236607142857 13.6925899621212  8.18303571428572 13.6363636363636  8.35714285714286 13.6363636363636  L 35.3571428571429 13.6363636363636  C 35.53125 13.6363636363636  35.6819196428571 13.6925899621212  35.8091517857143 13.8050426136364  Z M 35.8091517857143 6.98686079545454  C 35.9363839285714 7.0993134469697  36 7.23248106060606  36 7.38636363636363  L 36 10.7954545454545  C 36 10.9493371212121  35.9363839285714 11.0825047348485  35.8091517857143 11.1949573863636  C 35.6819196428571 11.3074100378788  35.53125 11.3636363636364  35.3571428571429 11.3636363636364  L 8.35714285714286 11.3636363636364  C 8.18303571428572 11.3636363636364  8.03236607142857 11.3074100378788  7.90513392857143 11.1949573863636  C 7.77790178571428 11.0825047348485  7.71428571428571 10.9493371212121  7.71428571428571 10.7954545454545  L 7.71428571428571 7.38636363636363  C 7.71428571428571 7.23248106060606  7.77790178571428 7.0993134469697  7.90513392857143 6.98686079545454  C 8.03236607142857 6.87440814393939  8.18303571428572 6.81818181818182  8.35714285714286 7  L 35.3571428571429 7  C 35.53125 6.81818181818182  35.6819196428571 6.87440814393939  35.8091517857143 6.98686079545454  Z M 35.8091517857143 0.168678977272727  C 35.9363839285714 0.281131628787878  36 0.41429924242424  36 0.568181818181818  L 36 3.97727272727273  C 36 4.1311553030303  35.9363839285714 4.26432291666666  35.8091517857143 4.37677556818182  C 35.6819196428571 4.48922821969697  35.53125 4.54545454545454  35.3571428571429 5  L 8.35714285714286 5  C 8.18303571428572 4.54545454545454  8.03236607142857 4.48922821969697  7.90513392857143 4.37677556818182  C 7.77790178571428 4.26432291666666  7.71428571428571 4.1311553030303  7.71428571428571 3.97727272727273  L 7.71428571428571 0.568181818181818  C 7.71428571428571 0.41429924242424  7.77790178571428 0.281131628787878  7.90513392857143 0.168678977272727  C 8.03236607142857 0.0562263257575718  8.18303571428572 0  8.35714285714286 0  L 35.3571428571429 0  C 35.53125 0  35.6819196428571 0.0562263257575718  35.8091517857143 0.168678977272727  Z " fill-rule="nonzero" fill="#000000" stroke="none" transform="matrix(1 0 0 1 1779 609 )" />
  </g>
</svg>