<?xml version="1.0" encoding="utf-8"?>
<svg version="1.1" xmlns:xlink="http://www.w3.org/1999/xlink" width="53px" height="68px" xmlns="http://www.w3.org/2000/svg">
  <defs>
    <filter x="584px" y="419px" width="53px" height="68px" filterUnits="userSpaceOnUse" id="filter253">
      <feOffset dx="1" dy="1" in="SourceAlpha" result="shadowOffsetInner" />
      <feGaussianBlur stdDeviation="2.5" in="shadowOffsetInner" result="shadowGaussian" />
      <feComposite in2="shadowGaussian" operator="atop" in="SourceAlpha" result="shadowComposite" />
      <feColorMatrix type="matrix" values="0 0 0 0 0  0 0 0 0 0  0 0 0 0 0  0 0 0 0.698039215686274 0  " in="shadowComposite" />
    </filter>
    <g id="widget254">
      <path d="M 609.5 480.029361910123  C 601.1 465.902684252383  588.5 457.426677657739  588.5 443.3  C 588.5 435.945714285714  592.7 423.5  609.5 423.5  C 626.3 423.5  630.5 435.945714285714  630.5 443.3  C 630.5 457.426677657739  617.9 465.902684252383  609.5 480.029361910123  Z " fill-rule="nonzero" fill="#009dd9" stroke="none" />
      <path d="M 609.5 481  C 600.9 466.5  588 457.8  588 443.3  C 588 435.76  592.3 423  609.5 423  C 626.7 423  631 435.76  631 443.3  C 631 457.8  618.1 466.5  609.5 481  Z M 609.5 479.058723820245  C 617.7 465.305368504766  630 457.053355315479  630 443.3  C 630 436.131428571429  625.9 424  609.5 424  C 593.1 424  589 436.131428571429  589 443.3  C 589 457.053355315479  601.3 465.305368504766  609.5 479.058723820245  Z " fill-rule="nonzero" fill="#ffffff" stroke="none" />
    </g>
  </defs>
  <g transform="matrix(1 0 0 1 -584 -419 )">
    <use xlink:href="#widget254" filter="url(#filter253)" />
    <use xlink:href="#widget254" />
  </g>
</svg>