<?xml version="1.0" encoding="utf-8"?>
<svg version="1.1" xmlns:xlink="http://www.w3.org/1999/xlink" width="35px" height="35px" viewBox="518 463  35 35" xmlns="http://www.w3.org/2000/svg">
  <path d="M 535.5 463  C 545.3 463  553 470.7  553 480.5  C 553 490.3  545.3 498  535.5 498  C 525.7 498  518 490.3  518 480.5  C 518 470.7  525.7 463  535.5 463  Z " fill-rule="nonzero" fill="#ffffff" stroke="none" />
  <path d="M 535.5 463.5  C 545.02 463.5  552.5 470.98  552.5 480.5  C 552.5 490.02  545.02 497.5  535.5 497.5  C 525.98 497.5  518.5 490.02  518.5 480.5  C 518.5 470.98  525.98 463.5  535.5 463.5  Z " stroke-width="1" stroke="#797979" fill="none" />
  <path d="M 535.5 489.25  C 530.6 489.25  526.75 485.4  526.75 480.5  C 526.75 475.6  530.6 471.75  535.5 471.75  C 540.4 471.75  544.25 475.6  544.25 480.5  C 544.25 485.4  540.4 489.25  535.5 489.25  " fill-rule="nonzero" fill="#797979" stroke="none" />
</svg>