<?xml version="1.0" encoding="utf-8"?>
<svg version="1.1" xmlns:xlink="http://www.w3.org/1999/xlink" width="35px" height="35px" viewBox="631 463  35 35" xmlns="http://www.w3.org/2000/svg">
  <path d="M 648.5 463  C 658.3 463  666 470.7  666 480.5  C 666 490.3  658.3 498  648.5 498  C 638.7 498  631 490.3  631 480.5  C 631 470.7  638.7 463  648.5 463  Z " fill-rule="nonzero" fill="#ffffff" stroke="none" />
  <path d="M 648.5 463.5  C 658.02 463.5  665.5 470.98  665.5 480.5  C 665.5 490.02  658.02 497.5  648.5 497.5  C 638.98 497.5  631.5 490.02  631.5 480.5  C 631.5 470.98  638.98 463.5  648.5 463.5  Z " stroke-width="1" stroke="#797979" fill="none" />
  <path d="M 648.5 489.25  C 643.6 489.25  639.75 485.4  639.75 480.5  C 639.75 475.6  643.6 471.75  648.5 471.75  C 653.4 471.75  657.25 475.6  657.25 480.5  C 657.25 485.4  653.4 489.25  648.5 489.25  " fill-rule="nonzero" fill="#797979" stroke="none" />
</svg>