<?xml version="1.0" encoding="utf-8"?>
<svg version="1.1" xmlns:xlink="http://www.w3.org/1999/xlink" width="25px" height="13px" xmlns="http://www.w3.org/2000/svg">
  <g transform="matrix(1 0 0 1 -904 -213 )">
    <path d="M 24.5361328125 0.428819444444445  C 24.8453776041667 0.714699074074073  25 1.05324074074074  25 1.44444444444445  C 25 1.83564814814815  24.8453776041667 2.17418981481481  24.5361328125 2.46006944444445  L 13.5986328125 12.5711805555556  C 13.2893880208333 12.8570601851852  12.9231770833333 13  12.5 13  C 12.0768229166667 13  11.7106119791667 12.8570601851852  11.4013671875 12.5711805555556  L 0.4638671875 2.46006944444445  C 0.154622395833333 2.17418981481481  0 1.83564814814815  0 1.44444444444445  C 0 1.05324074074074  0.154622395833333 0.714699074074073  0.4638671875 0.428819444444445  C 0.773111979166667 0.142939814814813  1.13932291666667 0  1.5625 0  L 23.4375 0  C 23.8606770833333 0  24.2268880208333 0.142939814814813  24.5361328125 0.428819444444445  Z " fill-rule="nonzero" fill="#000000" stroke="none" transform="matrix(1 0 0 1 904 213 )" />
  </g>
</svg>