<?xml version="1.0" encoding="utf-8"?>
<svg version="1.1" xmlns:xlink="http://www.w3.org/1999/xlink" width="48px" height="73px" xmlns="http://www.w3.org/2000/svg">
  <defs>
    <mask fill="white" id="clip258">
      <path d="M 38 22.05  C 38 28.8382634425543  35.8823162128619 34.4562279501113  32.8639133315061 39.9126932023284  C 32.8634147856105 39.9135944399906  32.8629162151425 39.914495673247  32.8624176201077 39.9153969021022  C 28.877685255061 47.1179471426235  23.323852485535 54.0393846516875  19 63  C 14.2853150925539 53.2294358825951  8.10824506823264 45.8833523536936  4.09757152672305 37.9536804556605  C 1.6431006282866 33.1008424706108  0 28.0294358825951  0 22.05  C 0 13.86  3.8 0  19 0  C 34.2 0  38 13.86  38 22.05  Z " fill-rule="evenodd" />
    </mask>
    <filter x="503px" y="150px" width="48px" height="73px" filterUnits="userSpaceOnUse" id="filter259">
      <feOffset dx="1" dy="1" in="SourceAlpha" result="shadowOffsetInner" />
      <feGaussianBlur stdDeviation="2.5" in="shadowOffsetInner" result="shadowGaussian" />
      <feComposite in2="shadowGaussian" operator="atop" in="SourceAlpha" result="shadowComposite" />
      <feColorMatrix type="matrix" values="0 0 0 0 0  0 0 0 0 0  0 0 0 0 0  0 0 0 0.698039215686274 0  " in="shadowComposite" />
    </filter>
    <g id="widget260">
      <path d="M 38 22.05  C 38 28.8382634425543  35.8823162128619 34.4562279501113  32.8639133315061 39.9126932023284  C 32.8634147856105 39.9135944399906  32.8629162151425 39.914495673247  32.8624176201077 39.9153969021022  C 28.877685255061 47.1179471426235  23.323852485535 54.0393846516875  19 63  C 14.2853150925539 53.2294358825951  8.10824506823264 45.8833523536936  4.09757152672305 37.9536804556605  C 1.6431006282866 33.1008424706108  0 28.0294358825951  0 22.05  C 0 13.86  3.8 0  19 0  C 34.2 0  38 13.86  38 22.05  Z " fill-rule="nonzero" fill="#009dd9" stroke="none" transform="matrix(1 0 0 1 507 154 )" />
      <path d="M 38 22.05  C 38 28.8382634425543  35.8823162128619 34.4562279501113  32.8639133315061 39.9126932023284  C 32.8634147856105 39.9135944399906  32.8629162151425 39.914495673247  32.8624176201077 39.9153969021022  C 28.877685255061 47.1179471426235  23.323852485535 54.0393846516875  19 63  C 14.2853150925539 53.2294358825951  8.10824506823264 45.8833523536936  4.09757152672305 37.9536804556605  C 1.6431006282866 33.1008424706108  0 28.0294358825951  0 22.05  C 0 13.86  3.8 0  19 0  C 34.2 0  38 13.86  38 22.05  Z " stroke-width="2" stroke="#ffffff" fill="none" transform="matrix(1 0 0 1 507 154 )" mask="url(#clip258)" />
    </g>
  </defs>
  <g transform="matrix(1 0 0 1 -503 -150 )">
    <use xlink:href="#widget260" filter="url(#filter259)" />
    <use xlink:href="#widget260" />
  </g>
</svg>