<?xml version="1.0" encoding="utf-8"?>
<svg version="1.1" xmlns:xlink="http://www.w3.org/1999/xlink" width="43px" height="64px" xmlns="http://www.w3.org/2000/svg">
  <defs>
    <filter x="1965px" y="65px" width="43px" height="64px" filterUnits="userSpaceOnUse" id="filter256">
      <feOffset dx="1" dy="1" in="SourceAlpha" result="shadowOffsetInner" />
      <feGaussianBlur stdDeviation="2.5" in="shadowOffsetInner" result="shadowGaussian" />
      <feComposite in2="shadowGaussian" operator="atop" in="SourceAlpha" result="shadowComposite" />
      <feColorMatrix type="matrix" values="0 0 0 0 0  0 0 0 0 0  0 0 0 0 0  0 0 0 0.698039215686274 0  " in="shadowComposite" />
    </filter>
    <g id="widget257">
      <path d="M 1985.5 121.889036648383  C 1979.1 108.816330245159  1969.5 100.972706403224  1969.5 87.9  C 1969.5 81.0657142857143  1972.7 69.5  1985.5 69.5  C 1998.3 69.5  2001.5 81.0657142857143  2001.5 87.9  C 2001.5 100.972706403224  1991.9 108.816330245159  1985.5 121.889036648383  Z " fill-rule="nonzero" fill="#009dd9" stroke="none" />
      <path d="M 1985.5 123  C 1978.9 109.5  1969 101.4  1969 87.9  C 1969 80.88  1972.3 69  1985.5 69  C 1998.7 69  2002 80.88  2002 87.9  C 2002 101.4  1992.1 109.5  1985.5 123  Z M 1985.5 120.778073296767  C 1991.7 108.132660490318  2001 100.545412806449  2001 87.9  C 2001 81.2514285714286  1997.9 70  1985.5 70  C 1973.1 70  1970 81.2514285714286  1970 87.9  C 1970 100.545412806449  1979.3 108.132660490318  1985.5 120.778073296767  Z " fill-rule="nonzero" fill="#ffffff" stroke="none" />
    </g>
  </defs>
  <g transform="matrix(1 0 0 1 -1965 -65 )">
    <use xlink:href="#widget257" filter="url(#filter256)" />
    <use xlink:href="#widget257" />
  </g>
</svg>